<?xml version="1.0" encoding="utf-8"?>
<!-- Generator: Adobe Illustrator 28.1.0, SVG Export Plug-In . SVG Version: 6.00 Build 0)  -->
<svg version="1.1" id="Layer_1" xmlns="http://www.w3.org/2000/svg" xmlns:xlink="http://www.w3.org/1999/xlink" x="0px" y="0px"
	 viewBox="0 0 288 288" style="enable-background:new 0 0 288 288;" xml:space="preserve">
<style type="text/css">
	.st0{fill:#FFFFFF;}
</style>
<g>
	<path class="st0" d="M144,256.92c-21.27,0-41.64-7.89-57.37-22.21l-1.29-1.18l0-10.61c-19.88-7.31-35.79-18.02-46.25-31.12H20.93
		l-7.15-8.68l6.02-34.24l8.52-7.24c7.85-25.26,35.21-46.32,72.48-55.73l0.39-4.08l9.59-10.28l2.14-40.48h62.15l2.14,40.46l9.61,10.3
		l0.39,4.08c37.04,9.35,64.29,30.21,72.33,55.27h7.54l7.15,8.68l-6.02,34.24l-9.05,7.69h-10.23c-10.46,13.1-26.37,23.8-46.25,31.12
		v10.61l-1.29,1.18C185.64,249.04,165.27,256.92,144,256.92z"/>
	<path d="M265.2,145.16h-8.65c-6.65-25.91-35.09-47.18-73.03-56.05l-0.39-4.08L183,83.55l-1.01-1.08l-5.12-5.49l-3.55-3.8
		l-2.02-38.15h-27.32h-27.32l-2.02,38.17l-3.53,3.78l-5.12,5.49L105,83.56l-0.14,1.47l-0.39,4.08
		c-37.94,8.87-66.39,30.15-73.03,56.05h-1.13c-2.68,2.28-4.18,3.55-6.86,5.83L18,182.02c1.87,2.28,2.93,3.55,4.8,5.83h18.23
		c10.34,13.7,27.3,25.02,48.27,32.29v11.65l0,0c31,28.23,78.4,28.23,109.4,0l0,0v-11.65c20.97-7.27,37.93-18.58,48.27-32.29h10.71
		c2.68-2.28,4.18-3.55,6.86-5.83l5.46-31.04C268.13,148.71,267.07,147.43,265.2,145.16z"/>
	<path class="st0" d="M167.2,39.37h-46.42l-3.56,66.21h11.35c2.68-8.46,9.36-11.03,15-11.02c5.18,0.01,13.18,2.16,15.85,11.02h11.28
		L167.2,39.37z"/>
	<g id="NCAA_DIsk_4C_00000167368338842485562720000000458499159019953281_">
		<g>
			<g>
				<path class="st0" d="M164.62,65.67c0,11.21-9.23,20.29-20.62,20.29c-11.39,0-20.62-9.09-20.62-20.29s9.23-20.29,20.62-20.29
					C155.39,45.37,164.62,54.46,164.62,65.67"/>
				<path d="M159.86,75.13h2.38c-3.46,6.44-10.33,10.82-18.24,10.82c-11.39,0-20.62-9.09-20.62-20.29s9.23-20.29,20.62-20.29
					c11.39,0,20.62,9.09,20.62,20.29c0,3-0.66,5.85-1.85,8.41l-0.6-8.55h-5.35l-0.63,2.2h0.83l-2.64,4.12l-0.37-6.32h-5.42
					l-0.62,2.19l0.83,0.01l-3.54,5.29L142.34,73c-0.31,0-1.49-0.28-1.49-1.71c0-1.44,1.39-3.53,2.8-3.53l0.59,0.01
					c-0.1,0.35-0.31,1.09-0.31,1.09h2.6l0.93-3.34h-4c-2.49,0-4.5,1.75-5.13,3.55l1.04-3.55h-3.56l-0.63,2.2l0.92,0l-0.93,3.21
					l-2.34-5.41h-3.32l-0.63,2.2h0.91l-2.07,7.41h2.66c0,0,1.03-3.68,1.29-4.62c0.38,0.89,1.94,4.62,1.94,4.62h2.96l1.36-4.71
					c-0.12,0.7-0.13,1.43,0,2.16c0.26,1.54,1.79,2.55,3.45,2.55h5.38l0.93-1.38h3.8l0.08,1.38h3.36l0.87-1.38h3.89L159.86,75.13z
					 M157.52,71.42h2.17l-0.1-3.08L157.52,71.42z M149.25,71.46h2.18l-0.11-3.09L149.25,71.46z"/>
				<path d="M164.63,75.14c-0.92,0-1.66,0.73-1.66,1.63c0,0.9,0.74,1.63,1.66,1.63s1.66-0.73,1.66-1.63
					C166.29,75.86,165.56,75.14,164.63,75.14 M165.94,76.78c0,0.71-0.59,1.29-1.31,1.29c-0.72,0-1.31-0.58-1.31-1.29
					c0-0.72,0.57-1.29,1.31-1.29C165.36,75.49,165.94,76.05,165.94,76.78"/>
				<path d="M165.43,76.42c0-0.37-0.35-0.6-0.67-0.6h-0.8v1.91h0.37v-0.72h0.23l0.48,0.72h0.44l-0.5-0.74
					C165.14,76.95,165.43,76.8,165.43,76.42 M165.05,76.42c0,0.16-0.15,0.27-0.29,0.27h-0.43v-0.55h0.43
					C164.9,76.14,165.05,76.25,165.05,76.42"/>
			</g>
		</g>
	</g>
	<polygon class="st0" points="114.26,79.99 109.22,85.31 107.34,105.58 112.98,105.58 	"/>
	<polygon class="st0" points="173.71,79.99 175.1,105.45 180.75,105.45 178.87,85.5 	"/>
	<g>
		<g>
			<path class="st0" d="M83.25,123.3l1.76-1.76h7.81l0.23-0.23v-1.94l-0.25-0.27h-5.2l-0.25,0.27v0.88H83.3v-1.89l1.93-1.93h9.85
				l2.03,2.03v4.07l-1.76,1.76h-7.81l-0.23,0.23v1.58h9.81v2.74H83.25V123.3z"/>
			<path class="st0" d="M99.3,126.58v-7.89l2.25-2.27h9.94l2.27,2.27v7.89l-2.27,2.27h-9.94L99.3,126.58z M108.88,126.17l0.83-0.83
				v-5.4l-0.83-0.83h-4.72l-0.83,0.83v5.4l0.83,0.83H108.88z"/>
			<path class="st0" d="M116.17,123.3l1.76-1.76h7.81l0.23-0.23v-1.94l-0.25-0.27h-5.2l-0.25,0.27v0.88h-4.05v-1.89l1.93-1.93H128
				l2.03,2.03v4.07l-1.76,1.76h-7.81l-0.23,0.23v1.58h9.81v2.74h-13.86V123.3z"/>
			<path class="st0" d="M140.74,125.97h-9.35v-2.16l3.51-7.38h3.89l-2.79,6.61h4.74v-6.61h4.03v6.61h1.67v2.94h-1.67v2.88h-4.03
				V125.97z"/>
			<path class="st0" d="M154.67,116.43h11.96l2.27,2.27v7.89l-2.27,2.27h-11.96V116.43z M164.03,126.17l0.81-0.83v-5.4l-0.81-0.83
				h-5.31v7.06H164.03z"/>
			<path class="st0" d="M171.07,126.29h2.84v-7.31h-2.84v-2.56h9.76v2.56h-2.86v7.31h2.86v2.56h-9.76V126.29z"/>
			<path class="st0" d="M182.89,126.29h2.84v-7.31h-2.84v-2.56h9.76v2.56h-2.86v7.31h2.86v2.56h-9.76V126.29z"/>
			<path class="st0" d="M194.72,126.29h2.84v-7.31h-2.84v-2.56h9.76v2.56h-2.86v7.31h2.86v2.56h-9.76V126.29z"/>
			<path class="st0" d="M66.1,144.66v-9.16l2.03-2.03h7.11l2.05,2.03v2.78h-3.64v-1.55l-0.59-0.59h-2.66l-0.65,0.65v6.67l0.65,0.63
				h2.66l0.59-0.58v-1.67h3.64v2.82l-2.05,2.03h-7.11L66.1,144.66z"/>
			<path class="st0" d="M79.07,133.47h9.31l1.94,1.92v4.2l-1.69,1.67l1.97,5.44h-3.78l-1.67-4.91H82.7v4.91h-3.62V133.47z
				 M86.16,139.3l0.52-0.54v-2.3l-0.52-0.52H82.7v3.35H86.16z"/>
			<path class="st0" d="M91.86,144.66v-9.16l2.03-2.03h7.24l2.05,2.03v9.16l-2.05,2.03h-7.24L91.86,144.66z M98.89,144.03l0.65-0.65
				v-6.59l-0.65-0.65h-2.74l-0.65,0.65v6.59l0.65,0.65H98.89z"/>
			<path class="st0" d="M104.89,144.84v-2.26h3.62v1.09l0.42,0.4h3.01l0.38-0.38v-1.92l-0.29-0.29h-5.46l-1.63-1.65v-4.45l1.92-1.92
				h7.21l1.86,1.86v2.26h-3.62v-1.09l-0.42-0.42h-2.91l-0.38,0.4v1.84l0.29,0.31h5.46l1.63,1.63v4.52l-1.92,1.92h-7.3L104.89,144.84
				z"/>
			<path class="st0" d="M117.57,144.84v-2.26h3.62v1.09l0.42,0.4h3.01l0.38-0.38v-1.92l-0.29-0.29h-5.46l-1.63-1.65v-4.45l1.92-1.92
				h7.21l1.86,1.86v2.26h-3.62v-1.09l-0.42-0.42h-2.91l-0.38,0.4v1.84l0.29,0.31h5.46l1.63,1.63v4.52l-1.92,1.92h-7.3L117.57,144.84
				z"/>
			<path class="st0" d="M135.14,144.66v-9.16l2.03-2.03h7.11l2.05,2.03v2.78h-3.64v-1.55l-0.59-0.59h-2.66l-0.65,0.65v6.67
				l0.65,0.63h2.66l0.59-0.58v-1.67h3.64v2.82l-2.05,2.03h-7.11L135.14,144.66z"/>
			<path class="st0" d="M147.93,144.66v-9.16l2.03-2.03h7.25l2.05,2.03v9.16l-2.05,2.03h-7.25L147.93,144.66z M154.96,144.03
				l0.65-0.65v-6.59l-0.65-0.65h-2.74l-0.65,0.65v6.59l0.65,0.65H154.96z"/>
			<path class="st0" d="M161.16,144.66v-11.19h3.64v9.81l0.65,0.65h2.47l0.65-0.65v-9.81h3.64v11.19l-2.03,2.03h-6.98L161.16,144.66
				z"/>
			<path class="st0" d="M174.31,133.47h3.68l4.22,7.76v-7.76h3.22v13.22h-3.72l-4.18-7.88v7.88h-3.22V133.47z"/>
			<path class="st0" d="M190.41,136.38h-3.53v-2.91h10.71v2.91h-3.54v10.31h-3.64V136.38z"/>
			<path class="st0" d="M199.03,133.47h9.31l1.94,1.92v4.2l-1.69,1.67l1.97,5.44h-3.78l-1.67-4.91h-2.47v4.91h-3.62V133.47z
				 M206.13,139.3l0.52-0.54v-2.3l-0.52-0.52h-3.47v3.35H206.13z"/>
			<path class="st0" d="M214.98,142.8l-4.14-9.33h3.95l2.15,5.79l2.28-5.79h3.54l-4.16,9.33v3.89h-3.62V142.8z"/>
		</g>
	</g>
	<g>
		<path class="st0" d="M158.58,192.39c0.63,0.08,1.5-1.51,1.7-3.43c0.2-1.91-0.66-3.42-1.9-3.61c-1.24-0.18-2.56,0.59-2.55,2.64
			C155.83,190.44,157.74,192.29,158.58,192.39"/>
		<path class="st0" d="M142.19,192.77c0.55,0.13,1.49-1.23,1.84-2.93c0.36-1.7-0.28-3.14-1.38-3.42c-1.1-0.28-2.36,0.3-2.54,2.14
			C139.9,190.76,141.44,192.6,142.19,192.77"/>
		<path class="st0" d="M163.75,220.64c0.31-1.7,0.76-3.7,1.33-6.05c-3.36-3.34-6.92-5.56-8.55-6.79c0.07-0.14,0.15-0.28,0.22-0.42
			c0.43-0.85,0.82-1.65,1.16-2.41c2.93-0.52,4.56-1.89,5.82-3.11c1.27-1.23,2.17-2.32,3.67-2.26c-0.69-0.88-1.39-1.17-2.11-1.1
			c-0.05-0.16-0.15-0.29-0.15-0.29c-0.57,0.09-0.79,0.5-1.56,0.97c-1.36,0.83-2.83,2.21-4.46,2.78c2.86-8.36-1-10.06-5.58-8.45
			c-1.87,0.66-3.87,1.87-5.58,3.41c0,0,1.55,4,5.6,5.74c-0.03,0.1-0.07,0.19-0.1,0.28c-1.44,3.67-3.4,3-3.25,7.53
			c-1.12,1.85-1.51,3.13-2.25,4.44c-2.92-3.83-6.22-6.42-7.45-7.56c1.08-2.08,1.86-3.88,2.4-5.42c0.63-0.34,1.13-0.76,2.27-1.02
			c0.62-0.05,0.93,0.22,0.93,0.22s0.05-0.19,0.07-0.38c0.49-0.05,0.99-0.05,1.5,0.01c0,0-0.6-2.81-4.09-1.27
			c1.8-8.63-6.7-6.46-11.43-2.22c0.96,3.31,2.76,4.18,4.84,5.6c-1.13,2.48-2.72,4.07-2.39,6.12c-1.52,2.27-2.21,5.08-4.22,7.48
			c-4.43,1.39-3.27,5.23-9.79,7.92c1.48,1.79-0.35,5.18,2.79,6.65c-0.88-3.69,0.45-7.76,8.89-12.06c0,0,3-2.64,5.61-6.64
			c2.16,0.96,4.93,1.67,6.87,3.37c-0.78,0.98-1.18,2.08-1.41,3.27l-0.92-0.09c-2.01,1.67-4.24,3.84-8.68,4.82
			c0.78,2.71-1.07,6.11,1.6,7.59c-0.17-2.59,1.06-5.25,4.23-7.57c1.04-0.76,2.26-1.45,3.5-2.04c-0.22,2.4-0.76,4.96-1.97,6.79
			c1.4,0.45,2.74,3.11,6.4,1.93c-2.94-1.33-3.5-4.08-1.55-9.93c0.7-0.26,1.44-0.51,2.22-0.74c0,0,2.96-1.95,6.05-7.26
			c1.61,0.47,4.9,1.58,7.58,3.51c-2.37,4.02,0.42,8.18-1.97,13.17c1.55,0.26,3.35,2.87,7.03,1.09
			C163.41,229.22,162.58,227.05,163.75,220.64 M137.71,200.8c-1.12-0.92-2.2-1.94-2.43-3.3c0,0,1.28-0.25,2.87-0.6
			C138.15,198.46,137.98,199.74,137.71,200.8 M154.02,200.92c-2.34-1.68-2.89-3.58-2.89-3.58c1.2-0.47,2.46-0.61,3.1-0.65
			c0.04,0.5,0.06,1.01,0.06,1.53C154.27,199.11,154.19,200.03,154.02,200.92"/>
	</g>
	<g>
		<g>
			<path class="st0" d="M40.07,176.12l-3.65,2.76h-8.37l-2.65-2.76l3.58-20.27l3.65-2.76H41l2.65,2.76l-0.92,5.27
				c-0.15,0.85-0.74,1.25-1.59,1.25h-4.28l0.66-3.83c0.07-0.41-0.07-0.66-0.52-0.66h-2.06c-0.48,0-0.74,0.26-0.81,0.7l-2.62,14.85
				c-0.07,0.41,0.07,0.66,0.52,0.66h2.06c0.48,0,0.74-0.26,0.81-0.7l0.7-3.98H40c0.85,0,1.18,0.44,1.03,1.25L40.07,176.12z"/>
			<path class="st0" d="M50.87,168.57l-1.58,9.07c-0.15,0.85-0.74,1.25-1.58,1.25h-4.28l4.53-25.8h5.64l-1.84,10.5h3.91l1.84-10.5
				h5.64l-4.31,24.55c-0.15,0.85-0.74,1.25-1.58,1.25h-4.28l1.81-10.32H50.87z"/>
			<path class="st0" d="M78.41,154.52l-0.59,24.36h-5.79l0.3-4.61h-3.61l-0.96,3.39c-0.22,0.81-0.7,1.22-1.55,1.22h-4.57l8.33-25.8
				h6.97C77.86,153.09,78.41,153.6,78.41,154.52z M72.62,169.75l0.77-12.2l-3.43,12.2H72.62z"/>
			<path class="st0" d="M107.23,153.09l-4.31,24.55c-0.15,0.85-0.74,1.25-1.58,1.25h-3.72l3.24-18.47l-5.68,17.18
				c-0.3,0.88-0.81,1.29-1.73,1.29h-4.75l0.48-18.47l-3.02,17.21c-0.15,0.85-0.74,1.25-1.58,1.25h-3.72l4.53-25.8h6.97
				c0.85,0,1.22,0.44,1.22,1.25l-0.44,16.92l6.01-18.17H107.23z"/>
			<path class="st0" d="M111.36,178.89h-4.28l4.53-25.8h11.91l2.65,2.76l-2.1,12.05l-3.65,2.76h-6.19l-1.29,6.97
				C112.8,178.48,112.21,178.89,111.36,178.89z M118.11,165.88c0.48,0,0.74-0.26,0.81-0.7l1.14-6.63c0.07-0.41-0.07-0.66-0.52-0.66
				h-3.1l-1.4,8H118.11z"/>
			<path class="st0" d="M126.33,178.89l4.53-25.8h5.64l-4.31,24.55c-0.15,0.85-0.74,1.25-1.58,1.25H126.33z"/>
			<path class="st0" d="M152.97,153.09l2.65,2.76l-3.58,20.27l-3.65,2.76h-8.92l-2.65-2.76l3.58-20.27l3.65-2.76H152.97z
				 M145.57,158.58l-2.62,14.85c-0.07,0.41,0.07,0.66,0.52,0.66h2.62c0.48,0,0.74-0.26,0.81-0.7l2.62-14.85
				c0.07-0.41-0.07-0.66-0.52-0.66h-2.62C145.9,157.88,145.64,158.14,145.57,158.58z"/>
			<path class="st0" d="M166.06,177.63l-2.4-12.64l-2.21,12.64c-0.15,0.85-0.74,1.25-1.58,1.25h-3.91l4.53-25.8h5.27l2.65,13.93
				l2.43-13.93h5.27l-4.53,25.8h-4.13C166.72,178.89,166.21,178.44,166.06,177.63z"/>
			<path class="st0" d="M193.26,166.17l-1.77,9.95l-3.65,2.76h-8.92l-2.65-2.76l1-5.64h4.39c0.85,0,1.18,0.41,1.03,1.25l-0.3,1.7
				c-0.07,0.44,0.07,0.66,0.52,0.66h2.62c0.48,0,0.74-0.26,0.81-0.7l0.92-5.2h-6.27l-2.65-2.73l1.7-9.62l3.65-2.76h8.55l2.65,2.76
				l-0.66,3.87c-0.15,0.85-0.74,1.25-1.58,1.25h-4.28l0.41-2.43c0.07-0.41-0.07-0.66-0.52-0.66H186c-0.48,0-0.74,0.26-0.81,0.7
				l-0.85,4.83h6.27L193.26,166.17z"/>
			<path class="st0" d="M202.66,168.57l-1.58,9.07c-0.15,0.85-0.74,1.25-1.58,1.25h-4.28l4.53-25.8h5.64l-1.84,10.5h3.91l1.84-10.5
				h5.64l-4.31,24.55c-0.15,0.85-0.74,1.25-1.58,1.25h-4.28l1.81-10.32H202.66z"/>
			<path class="st0" d="M214.79,178.89l4.53-25.8h5.64l-4.31,24.55c-0.15,0.85-0.74,1.25-1.58,1.25H214.79z"/>
			<path class="st0" d="M229.09,178.89h-4.28l4.53-25.8h11.91l2.65,2.76l-2.1,12.05l-3.65,2.76h-6.19l-1.29,6.97
				C230.53,178.48,229.94,178.89,229.09,178.89z M235.83,165.88c0.48,0,0.74-0.26,0.81-0.7l1.14-6.63c0.07-0.41-0.07-0.66-0.52-0.66
				h-3.1l-1.4,8H235.83z"/>
			<path class="st0" d="M260.97,166.17l-1.77,9.95l-3.65,2.76h-8.92l-2.65-2.76l1-5.64h4.39c0.85,0,1.18,0.41,1.03,1.25l-0.3,1.7
				c-0.07,0.44,0.07,0.66,0.52,0.66h2.62c0.48,0,0.74-0.26,0.81-0.7l0.92-5.2h-6.27l-2.65-2.73l1.7-9.62l3.65-2.76h8.55l2.65,2.76
				l-0.66,3.87c-0.15,0.85-0.74,1.25-1.58,1.25h-4.28l0.41-2.43c0.07-0.41-0.07-0.66-0.52-0.66h-2.25c-0.48,0-0.74,0.26-0.81,0.7
				l-0.85,4.83h6.27L260.97,166.17z"/>
		</g>
	</g>
	<path class="st0" d="M69.22,115.04c9.9-6.26,21.5-11.08,34.16-14.37l0.37-3.95c-13.55,3.39-25.97,8.48-36.53,15.17
		c-14.81,9.37-24.52,20.9-28.28,33.27h3.92C46.6,134.05,55.64,123.63,69.22,115.04z M220.77,111.88
		c-10.56-6.68-22.98-11.78-36.53-15.17l0.37,3.95c12.66,3.29,24.26,8.11,34.16,14.37c13.58,8.6,22.62,19.01,26.36,30.12h3.92
		C245.29,132.78,235.58,121.25,220.77,111.88z M189.37,187.74v39.53c-12.78,10.39-28.84,16.1-45.33,16.1
		c-16.5,0-32.56-5.71-45.33-16.1v-39.53H50.23c4.53,4.98,10.32,9.76,17,13.99c6.68,4.23,14.1,7.82,22.07,10.75v-3.97
		c-7.24-2.75-13.98-6.08-20.08-9.93c-3.55-2.25-6.78-4.62-9.7-7.1h35.45v37.55l0.67,0.56c13.55,11.3,30.74,17.52,48.4,17.52
		c17.66,0,34.84-6.22,48.4-17.52l0.67-0.56v-37.55h35.38c-2.92,2.48-6.15,4.85-9.7,7.1c-6.1,3.86-12.84,7.18-20.08,9.93v3.97
		c7.97-2.94,15.4-6.53,22.07-10.75c6.68-4.23,12.5-9.01,17.03-13.99H189.37z"/>
</g>
</svg>
