<?xml version="1.0" encoding="utf-8"?>
<!-- Generator: Adobe Illustrator 28.1.0, SVG Export Plug-In . SVG Version: 6.00 Build 0)  -->
<svg version="1.1" id="Layer_1" xmlns="http://www.w3.org/2000/svg" xmlns:xlink="http://www.w3.org/1999/xlink" x="0px" y="0px"
	 viewBox="0 0 288 288" style="enable-background:new 0 0 288 288;" xml:space="preserve">
<style type="text/css">
	.st0{fill:#C7CFDA;}
	.st1{fill:#00000D;}
	.st2{fill:#FFFFFF;}
	.st3{fill:#00A3DE;}
	.st4{fill:#8A8E96;}
	.st5{fill:#0080C5;}
</style>
<g>
	<path class="st0" d="M272.57,148.86l-1.86-2.26l-2.94-3.57l-1-1.21h-1.57h-6.13c-5.18-16.64-19.01-31.73-39.24-42.72
		c-9.95-5.41-21.2-9.65-33.22-12.65l-0.17-1.75l-0.14-1.47l-0.11-1.13l-0.77-0.83l-1.01-1.08l-5.12-5.49l-2.72-2.92l-1.95-36.93
		l-0.17-3.16h-3.16h-27.32h-27.32h-3.16l-0.17,3.16l-1.95,36.96l-2.7,2.89l-5.12,5.49l-1.01,1.08l-0.77,0.83l-0.11,1.13l-0.14,1.47
		l-0.16,1.74c-12.01,3-23.27,7.24-33.22,12.65c-20.3,11.03-34.16,26.2-39.29,42.91l-0.71,0.61l-3.43,2.91l-3.43,2.91l-0.92,0.78
		l-0.21,1.18l-5.46,31.04l-0.27,1.51l0.98,1.19l4.8,5.83l1,1.21h1.57h16.59c10.34,13.03,26.75,24.06,46.57,31.31v9.29v1.47
		l1.09,0.99c15.61,14.22,35.83,22.04,56.95,22.04c21.11,0,41.34-7.83,56.95-22.04l1.09-0.99l0-1.47l0-9.3
		c19.82-7.24,36.23-18.27,46.57-31.31h9.08h1.23l0.93-0.79l1.73-1.47l5.13-4.36l0.92-0.78l0.21-1.18l5.46-31.04l0.27-1.51
		L272.57,148.86z"/>
	<g>
		<path class="st1" d="M265.2,145.16h-8.65c-8.8-34.32-55.84-60.52-112.55-60.52s-103.75,26.2-112.55,60.52h-1.13
			c-2.68,2.28-4.18,3.55-6.86,5.83L18,182.02c1.87,2.28,2.93,3.55,4.8,5.83h18.23c10.34,13.7,27.3,25.02,48.27,32.29v11.65l0,0
			c31,28.23,78.4,28.23,109.4,0l0,0v-11.65c20.97-7.27,37.94-18.58,48.27-32.29h10.71c2.68-2.28,4.18-3.55,6.86-5.83l5.46-31.04
			C268.13,148.71,267.07,147.43,265.2,145.16z"/>
	</g>
	<path class="st0" d="M131.72,105.58c2.77-3.87,7.27-7.47,12.23-7.47c4.96,0,9.55,3.59,12.32,7.47h16.6l-3.62-68.37h-50.53
		l-3.62,68.37H131.72z"/>
	<g id="NCAA_DIsk_4C_00000167368338842485562720000000458499159019953281_">
		<g>
			<g>
				<path class="st2" d="M164.62,65.67c0,11.21-9.23,20.29-20.62,20.29c-11.39,0-20.62-9.09-20.62-20.29s9.23-20.29,20.62-20.29
					C155.39,45.37,164.62,54.46,164.62,65.67"/>
				<path class="st3" d="M159.86,75.13h2.38c-3.46,6.44-10.33,10.82-18.24,10.82c-11.39,0-20.62-9.09-20.62-20.29
					s9.23-20.29,20.62-20.29c11.39,0,20.62,9.09,20.62,20.29c0,3-0.66,5.85-1.85,8.41l-0.6-8.55h-5.35l-0.63,2.2h0.83l-2.64,4.12
					l-0.37-6.32h-5.42l-0.62,2.19l0.83,0.01l-3.54,5.29L142.34,73c-0.31,0-1.49-0.28-1.49-1.71c0-1.44,1.39-3.53,2.8-3.53l0.59,0.01
					c-0.1,0.35-0.31,1.09-0.31,1.09h2.6l0.93-3.34h-4c-2.49,0-4.5,1.75-5.13,3.55l1.04-3.55h-3.56l-0.63,2.2l0.92,0l-0.93,3.21
					l-2.34-5.41h-3.32l-0.63,2.2h0.91l-2.07,7.41h2.66c0,0,1.03-3.68,1.29-4.62c0.38,0.89,1.94,4.62,1.94,4.62h2.96l1.36-4.71
					c-0.12,0.7-0.13,1.43,0,2.16c0.26,1.54,1.79,2.55,3.45,2.55h5.38l0.93-1.38h3.8l0.08,1.38h3.36l0.87-1.38h3.89L159.86,75.13z
					 M157.52,71.42h2.17l-0.1-3.08L157.52,71.42z M149.25,71.46h2.18l-0.11-3.09L149.25,71.46z"/>
				<path class="st3" d="M164.63,75.14c-0.92,0-1.66,0.73-1.66,1.63c0,0.9,0.74,1.63,1.66,1.63s1.66-0.73,1.66-1.63
					C166.29,75.86,165.56,75.14,164.63,75.14 M165.94,76.78c0,0.71-0.59,1.29-1.31,1.29c-0.72,0-1.31-0.58-1.31-1.29
					c0-0.72,0.57-1.29,1.31-1.29C165.36,75.49,165.94,76.05,165.94,76.78"/>
				<path class="st3" d="M165.43,76.42c0-0.37-0.35-0.6-0.67-0.6h-0.8v1.91h0.37v-0.72h0.23l0.48,0.72h0.44l-0.5-0.74
					C165.14,76.95,165.43,76.8,165.43,76.42 M165.05,76.42c0,0.16-0.15,0.27-0.29,0.27h-0.43v-0.55h0.43
					C164.9,76.14,165.05,76.25,165.05,76.42"/>
			</g>
		</g>
	</g>
	<path class="st1" d="M183.14,85.02L183,83.55l-1.01-1.08l-5.12-5.49l-3.55-3.8l-2.02-38.15h-27.32h-27.32l-2.02,38.17l-3.53,3.78
		l-5.12,5.49L105,83.56l-0.14,1.47l-1.95,20.55h14.37l1.34-25.4l0.63-11.9l0,0l1.53-28.9h23.21h23.21l3.5,66.21h14.38L183.14,85.02z
		 M143.99,97.11c-6.19,0-11.83,3.3-14.87,8.46h5.38c2.35-2.53,5.72-4.13,9.49-4.13s7.14,1.6,9.49,4.13h5.38
		C155.82,100.42,150.18,97.11,143.99,97.11z"/>
	<polygon class="st4" points="112.94,105.58 114.3,79.95 109.18,85.43 107.27,105.58 	"/>
	<polygon class="st4" points="180.73,105.58 178.82,85.43 173.7,79.94 175.06,105.58 	"/>
	<path class="st4" d="M133.25,105.58c1.96-3.96,6.03-6.7,10.74-6.7s8.78,2.74,10.74,6.7h4.68c-2.21-6.41-8.28-11.03-15.43-11.03
		s-13.22,4.62-15.43,11.03H133.25z"/>
	<g>
		<g>
			<path class="st2" d="M83.25,123.3l1.76-1.76h7.81l0.23-0.23v-1.94l-0.25-0.27h-5.2l-0.25,0.27v0.88H83.3v-1.89l1.93-1.93h9.85
				l2.03,2.03v4.07l-1.76,1.76h-7.81l-0.23,0.23v1.58h9.81v2.74H83.25V123.3z"/>
			<path class="st2" d="M99.3,126.58v-7.89l2.25-2.27h9.94l2.27,2.27v7.89l-2.27,2.27h-9.94L99.3,126.58z M108.88,126.17l0.83-0.83
				v-5.4l-0.83-0.83h-4.72l-0.83,0.83v5.4l0.83,0.83H108.88z"/>
			<path class="st2" d="M116.17,123.3l1.76-1.76h7.81l0.23-0.23v-1.94l-0.25-0.27h-5.2l-0.25,0.27v0.88h-4.05v-1.89l1.93-1.93H128
				l2.03,2.03v4.07l-1.76,1.76h-7.81l-0.23,0.23v1.58h9.81v2.74h-13.86V123.3z"/>
			<path class="st2" d="M140.74,125.97h-9.35v-2.16l3.51-7.38h3.89l-2.79,6.61h4.74v-6.61h4.03v6.61h1.67v2.94h-1.67v2.88h-4.03
				V125.97z"/>
			<path class="st2" d="M154.67,116.43h11.96l2.27,2.27v7.89l-2.27,2.27h-11.96V116.43z M164.03,126.17l0.81-0.83v-5.4l-0.81-0.83
				h-5.31v7.06H164.03z"/>
			<path class="st2" d="M171.07,126.29h2.84v-7.31h-2.84v-2.56h9.76v2.56h-2.86v7.31h2.86v2.56h-9.76V126.29z"/>
			<path class="st2" d="M182.89,126.29h2.84v-7.31h-2.84v-2.56h9.76v2.56h-2.86v7.31h2.86v2.56h-9.76V126.29z"/>
			<path class="st2" d="M194.72,126.29h2.84v-7.31h-2.84v-2.56h9.76v2.56h-2.86v7.31h2.86v2.56h-9.76V126.29z"/>
			<path class="st2" d="M66.1,144.66v-9.16l2.03-2.03h7.11l2.05,2.03v2.78h-3.64v-1.55l-0.59-0.59h-2.66l-0.65,0.65v6.67l0.65,0.63
				h2.66l0.59-0.58v-1.67h3.64v2.82l-2.05,2.03h-7.11L66.1,144.66z"/>
			<path class="st2" d="M79.07,133.47h9.31l1.94,1.92v4.2l-1.69,1.67l1.97,5.44h-3.78l-1.67-4.91H82.7v4.91h-3.62V133.47z
				 M86.16,139.3l0.52-0.54v-2.3l-0.52-0.52H82.7v3.35H86.16z"/>
			<path class="st2" d="M91.86,144.66v-9.16l2.03-2.03h7.24l2.05,2.03v9.16l-2.05,2.03h-7.24L91.86,144.66z M98.89,144.03l0.65-0.65
				v-6.59l-0.65-0.65h-2.74l-0.65,0.65v6.59l0.65,0.65H98.89z"/>
			<path class="st2" d="M104.89,144.84v-2.26h3.62v1.09l0.42,0.4h3.01l0.38-0.38v-1.92l-0.29-0.29h-5.46l-1.63-1.65v-4.45l1.92-1.92
				h7.21l1.86,1.86v2.26h-3.62v-1.09l-0.42-0.42h-2.91l-0.38,0.4v1.84l0.29,0.31h5.46l1.63,1.63v4.52l-1.92,1.92h-7.3L104.89,144.84
				z"/>
			<path class="st2" d="M117.57,144.84v-2.26h3.62v1.09l0.42,0.4h3.01l0.38-0.38v-1.92l-0.29-0.29h-5.46l-1.63-1.65v-4.45l1.92-1.92
				h7.21l1.86,1.86v2.26h-3.62v-1.09l-0.42-0.42h-2.91l-0.38,0.4v1.84l0.29,0.31h5.46l1.63,1.63v4.52l-1.92,1.92h-7.3L117.57,144.84
				z"/>
			<path class="st2" d="M135.14,144.66v-9.16l2.03-2.03h7.11l2.05,2.03v2.78h-3.64v-1.55l-0.59-0.59h-2.66l-0.65,0.65v6.67
				l0.65,0.63h2.66l0.59-0.58v-1.67h3.64v2.82l-2.05,2.03h-7.11L135.14,144.66z"/>
			<path class="st2" d="M147.93,144.66v-9.16l2.03-2.03h7.25l2.05,2.03v9.16l-2.05,2.03h-7.25L147.93,144.66z M154.96,144.03
				l0.65-0.65v-6.59l-0.65-0.65h-2.74l-0.65,0.65v6.59l0.65,0.65H154.96z"/>
			<path class="st2" d="M161.16,144.66v-11.19h3.64v9.81l0.65,0.65h2.47l0.65-0.65v-9.81h3.64v11.19l-2.03,2.03h-6.98L161.16,144.66
				z"/>
			<path class="st2" d="M174.31,133.47h3.68l4.22,7.76v-7.76h3.22v13.22h-3.72l-4.18-7.88v7.88h-3.22V133.47z"/>
			<path class="st2" d="M190.41,136.38h-3.53v-2.91h10.71v2.91h-3.54v10.31h-3.64V136.38z"/>
			<path class="st2" d="M199.03,133.47h9.31l1.94,1.92v4.2l-1.69,1.67l1.97,5.44h-3.78l-1.67-4.91h-2.47v4.91h-3.62V133.47z
				 M206.13,139.3l0.52-0.54v-2.3l-0.52-0.52h-3.47v3.35H206.13z"/>
			<path class="st2" d="M214.98,142.8l-4.14-9.33h3.95l2.15,5.79l2.28-5.79h3.54l-4.16,9.33v3.89h-3.62V142.8z"/>
		</g>
	</g>
	<g>
		<path class="st2" d="M158.44,192.78c0.62,0.08,1.49-1.5,1.68-3.39c0.2-1.89-0.65-3.39-1.88-3.57c-1.23-0.18-2.54,0.59-2.53,2.61
			C155.72,190.85,157.61,192.67,158.44,192.78"/>
		<path class="st2" d="M142.21,193.15c0.55,0.13,1.47-1.21,1.83-2.9c0.35-1.68-0.28-3.11-1.36-3.39c-1.09-0.28-2.34,0.29-2.52,2.12
			C139.94,191.16,141.47,192.98,142.21,193.15"/>
		<path class="st2" d="M163.55,220.74c0.31-1.69,0.75-3.66,1.32-5.99c-3.33-3.3-6.86-5.51-8.46-6.72c0.07-0.14,0.15-0.28,0.22-0.42
			c0.43-0.84,0.81-1.63,1.14-2.39c2.9-0.52,4.51-1.87,5.76-3.08c1.26-1.22,2.15-2.3,3.63-2.24c-0.68-0.88-1.37-1.16-2.09-1.09
			c-0.05-0.16-0.15-0.29-0.15-0.29c-0.57,0.09-0.78,0.49-1.54,0.96c-1.35,0.83-2.8,2.19-4.42,2.75c2.83-8.28-0.99-9.96-5.53-8.36
			c-1.86,0.65-3.83,1.85-5.52,3.37c0,0,1.54,3.96,5.54,5.68c-0.03,0.1-0.07,0.19-0.1,0.28c-1.42,3.63-3.36,2.97-3.22,7.46
			c-1.11,1.83-1.49,3.09-2.23,4.39c-2.89-3.79-6.16-6.36-7.38-7.48c1.07-2.06,1.84-3.84,2.38-5.37c0.62-0.33,1.11-0.76,2.25-1.01
			c0.61-0.04,0.92,0.21,0.92,0.21s0.05-0.19,0.07-0.37c0.48-0.05,0.98-0.05,1.48,0.01c0,0-0.59-2.78-4.05-1.26
			c1.78-8.55-6.63-6.39-11.31-2.2c0.95,3.28,2.74,4.14,4.8,5.55c-1.12,2.46-2.69,4.03-2.37,6.06c-1.5,2.24-2.19,5.03-4.18,7.41
			c-4.39,1.38-3.24,5.18-9.7,7.85c1.46,1.77-0.35,5.12,2.76,6.58c-0.87-3.65,0.45-7.69,8.8-11.94c0,0,2.97-2.61,5.55-6.57
			c2.14,0.95,4.88,1.65,6.8,3.34c-0.77,0.97-1.17,2.06-1.4,3.23l-0.91-0.09c-1.99,1.65-4.2,3.81-8.59,4.77
			c0.78,2.69-1.05,6.05,1.58,7.52c-0.17-2.56,1.05-5.2,4.18-7.5c1.03-0.75,2.24-1.43,3.46-2.02c-0.22,2.38-0.75,4.91-1.95,6.72
			c1.39,0.44,2.71,3.08,6.34,1.91c-2.91-1.31-3.47-4.04-1.54-9.84c0.69-0.25,1.42-0.5,2.2-0.73c0,0,2.93-1.93,6-7.18
			c1.6,0.46,4.85,1.56,7.5,3.48c-2.34,3.98,0.42,8.1-1.95,13.04c1.54,0.26,3.32,2.85,6.96,1.08
			C163.22,229.24,162.4,227.09,163.55,220.74 M137.78,201.1c-1.11-0.92-2.17-1.92-2.41-3.27c0,0,1.27-0.25,2.84-0.6
			C138.2,198.79,138.04,200.05,137.78,201.1 M153.92,201.22c-2.31-1.66-2.87-3.55-2.87-3.55c1.19-0.47,2.44-0.61,3.07-0.65
			c0.04,0.49,0.06,1,0.06,1.52C154.17,199.43,154.09,200.34,153.92,201.22"/>
		<path class="st0" d="M138.98,210.8c-2.31-0.85-3.7-2.37-2.09-4.57c0.53-0.73,0.95-1.5,1.28-2.29c0.73,0.7,0.7,1.19,0.7,1.19
			s0.24-0.09,0.42-0.2c0.27,0.26,0.54,0.55,0.81,0.86c0.16-1.04-0.54-1.89-1.59-2.72c-0.34-0.27-0.7-0.53-1.09-0.79
			c-1.88-1.29-4.22-2.65-5.15-4.68c0.95,3.28,2.74,4.14,4.8,5.55c-1.12,2.46-2.69,4.03-2.37,6.06c-1.5,2.24-2.19,5.03-4.18,7.41
			c-4.39,1.38-3.24,5.18-9.7,7.85c1.46,1.77-0.34,5.12,2.76,6.58c-0.87-3.65,0.45-7.69,8.8-11.94c0,0,2.97-2.61,5.55-6.57
			c2.14,0.95,4.88,1.65,6.8,3.34c0.67-0.83,1.32-0.99,1.32-0.99C144.12,212.68,141.15,211.74,138.98,210.8"/>
		<path class="st0" d="M138.84,201.98c0.44-1.67,0.55-3.2,0.57-4.1c0.81-0.37,1.1-1.17,1.1-1.17c-0.77,0.19-1.57,0.37-2.31,0.53
			c0,1.55-0.17,2.81-0.43,3.86C138.14,201.4,138.5,201.69,138.84,201.98"/>
		<path class="st0" d="M147.64,201.04c0,0-0.59-2.78-4.05-1.26c-0.15,0.73-0.38,1.53-0.68,2.42c0.62-0.33,1.11-0.76,2.25-1.01
			c0.61-0.04,0.92,0.21,0.92,0.21s0.05-0.19,0.07-0.37C146.64,200.98,147.14,200.98,147.64,201.04"/>
		<path class="st0" d="M140.52,188.36c0.02-0.33,0.08-0.61,0.17-0.85c-0.28,0.35-0.48,0.83-0.54,1.48c-0.21,2.18,1.32,4,2.06,4.17
			c0.22,0.05,0.5-0.13,0.77-0.48C142.04,192.24,140.4,190.41,140.52,188.36"/>
		<path class="st0" d="M163.55,220.74c-1.06-2.42-0.17-5.42-0.17-5.42c-2.86-2.68-6.35-4.55-7.87-5.3c-0.46,0.95-0.93,1.82-1.4,2.62
			c1.6,0.46,4.85,1.56,7.5,3.48c-2.34,3.98,0.42,8.1-1.95,13.04c1.54,0.26,3.32,2.85,6.96,1.08
			C163.22,229.24,162.4,227.09,163.55,220.74"/>
		<path class="st0" d="M154.18,198.54c-0.01,0.89-0.09,1.8-0.26,2.68c-2.31-1.66-2.87-3.55-2.87-3.55c1.19-0.47,2.44-0.61,3.07-0.65
			c-0.06-0.67-0.16-1.31-0.29-1.88c-1.21,0.16-3.4,0.65-5.92,2.1c0,0,1.54,3.96,5.54,5.68c-0.03,0.1-0.07,0.19-0.1,0.28
			c-1.42,3.63-3.36,2.97-3.22,7.46c-1.6,2.66-1.7,4.12-3.53,6.23c-0.11,0.01-0.23,0.03-0.33,0.04c-1.5,0.24-2.63,1.05-3.84,2.05
			c-1.99,1.65-4.2,3.81-8.59,4.77c0.78,2.69-1.05,6.05,1.58,7.52c-0.17-2.56,1.06-5.18,4.18-7.5c0.65-1.32,1.58-2.36,2.58-3.16
			c1.19-0.96,2.47-1.59,3.45-1.98c0.96-0.38,1.62-0.53,1.62-0.53c2.11-1.77,3.09-5.13,4.34-6.75c0,0-0.9-2.93,1.26-5.15
			C156.1,202.89,154.92,199.81,154.18,198.54"/>
		<path class="st0" d="M156.08,202.28c-0.13,1.7,0.28,3.12,0.28,3.12c0.5-0.04,0.97-0.1,1.41-0.17c2.9-0.52,4.51-1.87,5.76-3.08
			c-1.88,1.37-4.1,1.82-5.28,1.96c-0.52,0.06-0.84,0.06-0.84,0.06C156.89,203.74,156.45,203.04,156.08,202.28"/>
		<path class="st0" d="M158.44,192.78c0.25,0.03,0.53-0.2,0.8-0.61c-1.08-0.37-3.09-2.2-3.19-4.47c-0.02-0.36,0.02-0.68,0.09-0.96
			c-0.26,0.42-0.43,0.97-0.43,1.69C155.72,190.85,157.61,192.67,158.44,192.78"/>
	</g>
	<g>
		<g>
			<path class="st2" d="M40.07,176.12l-3.65,2.76h-8.37l-2.65-2.76l3.58-20.27l3.65-2.76H41l2.65,2.76l-0.92,5.27
				c-0.15,0.85-0.74,1.25-1.59,1.25h-4.28l0.66-3.83c0.07-0.41-0.07-0.66-0.52-0.66h-2.06c-0.48,0-0.74,0.26-0.81,0.7l-2.62,14.85
				c-0.07,0.41,0.07,0.66,0.52,0.66h2.06c0.48,0,0.74-0.26,0.81-0.7l0.7-3.98H40c0.85,0,1.18,0.44,1.03,1.25L40.07,176.12z"/>
			<path class="st2" d="M50.87,168.57l-1.58,9.07c-0.15,0.85-0.74,1.25-1.58,1.25h-4.28l4.53-25.8h5.64l-1.84,10.5h3.91l1.84-10.5
				h5.64l-4.31,24.55c-0.15,0.85-0.74,1.25-1.58,1.25h-4.28l1.81-10.32H50.87z"/>
			<path class="st2" d="M78.41,154.52l-0.59,24.36h-5.79l0.3-4.61h-3.61l-0.96,3.39c-0.22,0.81-0.7,1.22-1.55,1.22h-4.57l8.33-25.8
				h6.97C77.86,153.09,78.41,153.6,78.41,154.52z M72.62,169.75l0.77-12.2l-3.43,12.2H72.62z"/>
			<path class="st2" d="M107.23,153.09l-4.31,24.55c-0.15,0.85-0.74,1.25-1.58,1.25h-3.72l3.24-18.47l-5.68,17.18
				c-0.3,0.88-0.81,1.29-1.73,1.29h-4.75l0.48-18.47l-3.02,17.21c-0.15,0.85-0.74,1.25-1.58,1.25h-3.72l4.53-25.8h6.97
				c0.85,0,1.22,0.44,1.22,1.25l-0.44,16.92l6.01-18.17H107.23z"/>
			<path class="st2" d="M111.36,178.89h-4.28l4.53-25.8h11.91l2.65,2.76l-2.1,12.05l-3.65,2.76h-6.19l-1.29,6.97
				C112.8,178.48,112.21,178.89,111.36,178.89z M118.11,165.88c0.48,0,0.74-0.26,0.81-0.7l1.14-6.63c0.07-0.41-0.07-0.66-0.52-0.66
				h-3.1l-1.4,8H118.11z"/>
			<path class="st2" d="M126.33,178.89l4.53-25.8h5.64l-4.31,24.55c-0.15,0.85-0.74,1.25-1.58,1.25H126.33z"/>
			<path class="st2" d="M152.97,153.09l2.65,2.76l-3.58,20.27l-3.65,2.76h-8.92l-2.65-2.76l3.58-20.27l3.65-2.76H152.97z
				 M145.57,158.58l-2.62,14.85c-0.07,0.41,0.07,0.66,0.52,0.66h2.62c0.48,0,0.74-0.26,0.81-0.7l2.62-14.85
				c0.07-0.41-0.07-0.66-0.52-0.66h-2.62C145.9,157.88,145.64,158.14,145.57,158.58z"/>
			<path class="st2" d="M166.06,177.63l-2.4-12.64l-2.21,12.64c-0.15,0.85-0.74,1.25-1.58,1.25h-3.91l4.53-25.8h5.27l2.65,13.93
				l2.43-13.93h5.27l-4.53,25.8h-4.13C166.72,178.89,166.21,178.44,166.06,177.63z"/>
			<path class="st2" d="M193.26,166.17l-1.77,9.95l-3.65,2.76h-8.92l-2.65-2.76l1-5.64h4.39c0.85,0,1.18,0.41,1.03,1.25l-0.3,1.7
				c-0.07,0.44,0.07,0.66,0.52,0.66h2.62c0.48,0,0.74-0.26,0.81-0.7l0.92-5.2h-6.27l-2.65-2.73l1.7-9.62l3.65-2.76h8.55l2.65,2.76
				l-0.66,3.87c-0.15,0.85-0.74,1.25-1.58,1.25h-4.28l0.41-2.43c0.07-0.41-0.07-0.66-0.52-0.66H186c-0.48,0-0.74,0.26-0.81,0.7
				l-0.85,4.83h6.27L193.26,166.17z"/>
			<path class="st2" d="M202.66,168.57l-1.58,9.07c-0.15,0.85-0.74,1.25-1.58,1.25h-4.28l4.53-25.8h5.64l-1.84,10.5h3.91l1.84-10.5
				h5.64l-4.31,24.55c-0.15,0.85-0.74,1.25-1.58,1.25h-4.28l1.81-10.32H202.66z"/>
			<path class="st2" d="M214.79,178.89l4.53-25.8h5.64l-4.31,24.55c-0.15,0.85-0.74,1.25-1.58,1.25H214.79z"/>
			<path class="st2" d="M229.09,178.89h-4.28l4.53-25.8h11.91l2.65,2.76l-2.1,12.05l-3.65,2.76h-6.19l-1.29,6.97
				C230.53,178.48,229.94,178.89,229.09,178.89z M235.83,165.88c0.48,0,0.74-0.26,0.81-0.7l1.14-6.63c0.07-0.41-0.07-0.66-0.52-0.66
				h-3.1l-1.4,8H235.83z"/>
			<path class="st2" d="M260.97,166.17l-1.77,9.95l-3.65,2.76h-8.92l-2.65-2.76l1-5.64h4.39c0.85,0,1.18,0.41,1.03,1.25l-0.3,1.7
				c-0.07,0.44,0.07,0.66,0.52,0.66h2.62c0.48,0,0.74-0.26,0.81-0.7l0.92-5.2h-6.27l-2.65-2.73l1.7-9.62l3.65-2.76h8.55l2.65,2.76
				l-0.66,3.87c-0.15,0.85-0.74,1.25-1.58,1.25h-4.28l0.41-2.43c0.07-0.41-0.07-0.66-0.52-0.66h-2.25c-0.48,0-0.74,0.26-0.81,0.7
				l-0.85,4.83h6.27L260.97,166.17z"/>
		</g>
	</g>
	<path class="st5" d="M69.22,115.04c9.9-6.26,21.5-11.08,34.16-14.37l0.37-3.95c-13.55,3.39-25.97,8.48-36.53,15.17
		c-14.81,9.37-24.52,20.9-28.28,33.27h3.92C46.6,134.05,55.64,123.63,69.22,115.04z M220.77,111.88
		c-10.56-6.68-22.98-11.78-36.53-15.17l0.37,3.95c12.66,3.29,24.26,8.11,34.16,14.37c13.58,8.6,22.62,19.01,26.36,30.12h3.92
		C245.29,132.78,235.58,121.25,220.77,111.88z M189.37,187.74v39.53c-12.78,10.39-28.84,16.1-45.33,16.1
		c-16.5,0-32.56-5.71-45.33-16.1v-39.53H50.23c4.53,4.98,10.32,9.76,17,13.99c6.68,4.23,14.1,7.82,22.07,10.75v-3.97
		c-7.24-2.75-13.98-6.08-20.08-9.93c-3.55-2.25-6.78-4.62-9.7-7.1h35.45v37.55l0.67,0.56c13.55,11.3,30.74,17.52,48.4,17.52
		c17.66,0,34.84-6.22,48.4-17.52l0.67-0.56v-37.55h35.38c-2.92,2.48-6.15,4.85-9.7,7.1c-6.1,3.86-12.84,7.18-20.08,9.93v3.97
		c7.97-2.94,15.4-6.53,22.07-10.75c6.68-4.23,12.5-9.01,17.03-13.99H189.37z"/>
</g>
</svg>
